<svg width="45" height="45" viewBox="0 0 45 45" fill="none" xmlns="http://www.w3.org/2000/svg">
<g id="Back">
<path id="Vector" d="M22.2114 1.84363C10.8516 1.84363 1.64258 11.0526 1.64258 22.4125C1.64258 33.7724 10.8516 42.9813 22.2114 42.9813C33.5713 42.9813 42.7803 33.7723 42.7803 22.4125C42.7803 11.0526 33.5713 1.84363 22.2114 1.84363ZM34.8165 35.0176C31.6909 38.1338 27.517 39.9746 23.1082 40.1815C18.6994 40.3883 14.3715 38.9463 10.9678 36.1365C7.56414 33.3266 5.32849 29.3502 4.6965 24.982C4.06451 20.6139 5.08145 16.1669 7.54917 12.5076C10.0169 8.84823 13.7586 6.23872 18.0452 5.1875C22.3319 4.13628 26.8563 4.71865 30.737 6.82114C34.6177 8.92363 37.5767 12.3956 39.0373 16.5606C40.4979 20.7255 40.3555 25.2851 38.638 29.3509C37.7428 31.4692 36.445 33.3937 34.8165 35.0176Z" fill="#939393"/>
<path id="Vector_2" d="M23.6353 14.6086L21.696 12.6694L11.9531 22.4123L21.696 32.1552L23.6353 30.2159L17.2029 23.7836H33.2672V21.041H17.2029L23.6353 14.6086Z" fill="#939393"/>
</g>
</svg>
