<svg width="45" height="45" viewBox="0 0 45 45" fill="none" xmlns="http://www.w3.org/2000/svg">
<g id="Forward">
<path id="Vector" d="M22.4399 1.84363C11.0801 1.84363 1.87109 11.0526 1.87109 22.4125C1.87109 33.7724 11.0801 42.9813 22.4399 42.9813C33.7998 42.9813 43.0088 33.7723 43.0088 22.4125C43.0088 11.0526 33.7999 1.84363 22.4399 1.84363ZM35.045 35.0176C31.9194 38.1338 27.7455 39.9746 23.3367 40.1815C18.9279 40.3883 14.6 38.9463 11.1963 36.1365C7.79265 33.3266 5.557 29.3502 4.92501 24.982C4.29302 20.6139 5.30996 16.1669 7.77768 12.5076C10.2454 8.84823 13.9871 6.23872 18.2738 5.1875C22.5604 4.13628 27.0849 4.71865 30.9656 6.82114C34.8463 8.92363 37.8052 12.3956 39.2658 16.5606C40.7264 20.7255 40.584 25.2851 38.8665 29.3509C37.9713 31.4692 36.6735 33.3937 35.045 35.0176Z" fill="black"/>
<path id="Vector_2" d="M21.0169 14.6086L27.4492 21.041H11.4609V23.7836H27.4492L21.0169 30.2159L22.9561 32.1552L32.699 22.4123L22.9561 12.6694L21.0169 14.6086Z" fill="black"/>
</g>
</svg>
