<svg width="42" height="28" viewBox="0 0 42 28" fill="none" xmlns="http://www.w3.org/2000/svg">
<path id="Vector" d="M38.322 27.3722H3.33487C2.62109 27.3722 1.93654 27.0856 1.43182 26.5754C0.927104 26.0652 0.643555 25.3732 0.643555 24.6517L0.643555 2.88708C0.643555 2.16554 0.927104 1.47355 1.43182 0.963341C1.93654 0.453135 2.62109 0.166504 3.33487 0.166504L38.322 0.166504C39.0358 0.166504 39.7204 0.453135 40.2251 0.963341C40.7298 1.47355 41.0134 2.16554 41.0134 2.88708V24.6517C41.0134 25.3732 40.7298 26.0652 40.2251 26.5754C39.7204 27.0856 39.0358 27.3722 38.322 27.3722ZM16.3788 11.8706C16.3481 11.871 16.3179 11.8784 16.2903 11.8921C16.2628 11.9058 16.2386 11.9256 16.2196 11.95C16.1754 11.9955 16.1501 12.0563 16.1489 12.12C16.1489 12.1438 16.2588 12.4828 16.4943 13.1776L17.0034 14.6808L17.24 15.3813C17.5054 16.1672 17.6441 16.5852 17.6561 16.635C17.134 17.2884 16.662 17.9812 16.2442 18.7072L16.2016 18.7866L16.1994 18.8149C16.1994 18.9283 16.2902 19.0212 16.4035 19.0212L16.4338 19.0189H16.4326H17.7985C17.8621 19.0185 17.9247 19.0018 17.9802 18.9703C18.0357 18.9387 18.0824 18.8935 18.1158 18.8387L18.1169 18.8376L22.6384 12.2413C22.6621 12.2097 22.6751 12.1711 22.6754 12.1314L22.6742 12.1144V12.1155C22.6727 12.0518 22.6475 11.9911 22.6036 11.9454C22.5847 11.9212 22.5608 11.9014 22.5334 11.8877C22.5061 11.874 22.476 11.8666 22.4455 11.8661H21.0785C21.0147 11.8665 20.952 11.8833 20.8963 11.9148C20.8406 11.9463 20.7938 11.9916 20.76 12.0463L20.7589 12.0475L18.875 14.8429L18.0956 12.154C18.0756 12.0721 18.0291 11.9993 17.9635 11.9471C17.8979 11.8949 17.8169 11.8664 17.7334 11.8661L17.7043 11.8672H17.7054L16.3788 11.8706ZM32.0535 11.7448H32.0243C31.1743 11.7448 30.4107 12.1178 29.8836 12.7095L29.8814 12.7117C29.3049 13.3144 28.9832 14.1202 28.9843 14.9585V14.9891V14.988C28.982 15.0208 28.982 15.0605 28.982 15.099C28.982 15.7078 29.2164 16.2621 29.5977 16.6736L29.5965 16.6724C29.8134 16.886 30.0716 17.052 30.3548 17.16C30.6381 17.2681 30.9404 17.3159 31.2427 17.3004H31.2371C31.615 17.2959 31.9739 17.2177 32.3013 17.0771L32.2834 17.0839C32.6142 16.9581 32.8945 16.762 33.1154 16.5126L33.1177 16.5103C33.1065 16.575 33.0941 16.6294 33.0796 16.6815L33.0818 16.6702C33.0618 16.7396 33.0497 16.8111 33.0459 16.8833V16.8856C33.0459 17.076 33.1233 17.1723 33.2769 17.1723H34.5004C34.5481 17.1767 34.5963 17.1713 34.642 17.1565C34.6876 17.1417 34.7299 17.1178 34.7663 17.0862C34.8027 17.0546 34.8324 17.0159 34.8538 16.9725C34.8751 16.9291 34.8876 16.8818 34.8906 16.8334V16.8323L35.6173 12.154C35.6241 12.1187 35.6229 12.0823 35.6138 12.0476C35.6047 12.0128 35.5878 11.9806 35.5645 11.9534C35.5444 11.9253 35.5179 11.9024 35.4873 11.8867C35.4567 11.8709 35.4228 11.8627 35.3885 11.8627H34.0395C33.8746 11.8627 33.7703 12.0611 33.7367 12.4544C33.5393 12.1984 33.2797 11.9984 32.9832 11.8738C32.6867 11.7493 32.3633 11.7044 32.0445 11.7437L32.0535 11.7425V11.7448ZM11.9101 11.7448H11.8787C11.0298 11.7448 10.2661 12.1178 9.74134 12.7095L9.73909 12.7117C9.16265 13.3144 8.8409 14.1202 8.84199 14.9585V14.9891V14.988C8.82713 15.2961 8.8739 15.6041 8.97948 15.8935C9.08507 16.1829 9.24731 16.4478 9.45651 16.6724L9.45538 16.6713C9.85235 17.0613 10.3951 17.3016 10.9939 17.3016L11.1016 17.2993H11.096C11.4683 17.2936 11.8215 17.2154 12.1433 17.076L12.1254 17.0828C12.4607 16.9536 12.7455 16.7586 12.9754 16.5103L12.9765 16.5092C12.935 16.6203 12.9092 16.7495 12.9059 16.8833V16.8856C12.9059 17.076 12.9844 17.1723 13.1369 17.1723H14.3592C14.407 17.1767 14.4551 17.1713 14.5008 17.1565C14.5465 17.1417 14.5887 17.1178 14.6251 17.0862C14.6615 17.0546 14.6913 17.0159 14.7126 16.9725C14.734 16.9291 14.7465 16.8818 14.7494 16.8334V16.8323L15.4772 12.154C15.4833 12.119 15.4817 12.083 15.4724 12.0487C15.463 12.0144 15.4463 11.9826 15.4234 11.9557C15.4032 11.9276 15.3767 11.9047 15.3461 11.8889C15.3155 11.8732 15.2817 11.865 15.2473 11.865H13.8983C13.7335 11.865 13.6292 12.0633 13.5967 12.4567C13.3972 12.2027 13.1372 12.0041 12.841 11.8796C12.5448 11.7551 12.2222 11.7087 11.9034 11.7448L11.9123 11.7437L11.9101 11.7448ZM37.2141 9.23508L37.1962 9.23395C37.1426 9.23375 37.091 9.25394 37.0515 9.29049C37.012 9.32703 36.9876 9.37727 36.9831 9.43119V9.43232L35.8303 16.889C35.8209 16.9248 35.8207 16.9626 35.83 16.9986C35.8392 17.0345 35.8575 17.0674 35.883 17.0941C35.9042 17.1195 35.9307 17.1399 35.9605 17.1538C35.9904 17.1677 36.0229 17.1748 36.0557 17.1746H37.2332L37.2691 17.1769C37.3583 17.1769 37.4438 17.1411 37.5069 17.0773C37.57 17.0135 37.6055 16.927 37.6055 16.8368V16.8345L38.756 9.506L38.7571 9.48106C38.757 9.41643 38.7362 9.35357 38.6977 9.30196V9.30309C38.6776 9.28138 38.6532 9.26405 38.6262 9.25216C38.5993 9.24027 38.5701 9.23407 38.5407 9.23395L38.5239 9.23508H38.525H37.2141ZM24.1276 9.23508C24.0794 9.2287 24.0305 9.23264 23.984 9.24666C23.9374 9.26068 23.8944 9.28445 23.8575 9.31643C23.8207 9.34842 23.791 9.38789 23.7703 9.43227C23.7496 9.47665 23.7383 9.52495 23.7373 9.57402L22.5857 16.8878C22.5797 16.9226 22.5814 16.9583 22.5905 16.9923C22.5996 17.0264 22.6159 17.058 22.6384 17.0851C22.6582 17.1133 22.6844 17.1362 22.7149 17.152C22.7453 17.1678 22.7791 17.1759 22.8133 17.1758H24.2767C24.3424 17.1757 24.406 17.1526 24.4567 17.1104C24.5074 17.0683 24.5421 17.0096 24.5548 16.9445V16.9422L24.8744 14.8633C24.8839 14.7722 24.9287 14.6887 24.9989 14.6309H25C25.0765 14.5684 25.1684 14.528 25.2658 14.5141H25.2691C25.36 14.4971 25.4643 14.4881 25.5708 14.4869H25.5719C25.6661 14.4869 25.7782 14.4926 25.9083 14.5051C26.0505 14.5216 26.1936 14.5292 26.3367 14.5277C27.1583 14.5291 27.9499 14.216 28.5525 13.6515L28.5503 13.6537C28.8508 13.3316 29.0828 12.9507 29.2321 12.5345C29.3814 12.1182 29.4447 11.6755 29.4182 11.2336V11.2426C29.4424 10.9504 29.3928 10.6567 29.2742 10.3891C29.1555 10.1214 28.9717 9.8886 28.7398 9.71231L28.7353 9.70891C28.2002 9.36686 27.5734 9.20092 26.9411 9.23395H26.9478L24.1276 9.23508ZM3.96285 9.23508C3.91594 9.22999 3.8685 9.23494 3.8236 9.24959C3.7787 9.26424 3.73736 9.28828 3.70225 9.32014C3.66714 9.35199 3.63905 9.39096 3.61981 9.4345C3.60056 9.47804 3.5906 9.52519 3.59055 9.57288V9.57515L2.43777 16.889C2.43176 16.9237 2.43336 16.9594 2.44247 16.9935C2.45157 17.0276 2.46796 17.0592 2.49047 17.0862C2.51028 17.1144 2.53652 17.1374 2.56697 17.1532C2.59743 17.1689 2.63119 17.1771 2.66541 17.1769H4.01555C4.06369 17.1833 4.11262 17.1793 4.15914 17.1653C4.20567 17.1513 4.24874 17.1275 4.28557 17.0955C4.32239 17.0635 4.35213 17.0241 4.37285 16.9797C4.39356 16.9353 4.40479 16.887 4.4058 16.8379L4.72539 14.8667C4.7351 14.776 4.77934 14.6926 4.84874 14.6343H4.84986C4.92638 14.5718 5.01823 14.5314 5.11563 14.5175H5.11899C5.21822 14.4998 5.31877 14.4907 5.41953 14.4903H5.42065C5.51484 14.4903 5.62698 14.496 5.75706 14.5085C5.89888 14.5249 6.04157 14.5325 6.18431 14.5311C7.03992 14.5311 7.81816 14.199 8.40128 13.6549L8.39904 13.6571C8.69942 13.335 8.93138 12.954 9.08064 12.5378C9.22991 12.1216 9.29333 11.6789 9.26699 11.237V11.246C9.29113 10.9538 9.24155 10.6601 9.1229 10.3925C9.00426 10.1248 8.82041 9.892 8.58855 9.71571L8.58407 9.71231C8.05129 9.37152 7.42744 9.20525 6.79771 9.23621H6.80443L3.96285 9.23508ZM31.9795 15.8495L31.9257 15.8506C31.6391 15.8509 31.3618 15.7485 31.1429 15.5615L31.1452 15.5627C31.044 15.4684 30.9632 15.354 30.908 15.2266C30.8528 15.0992 30.8244 14.9616 30.8245 14.8225L30.8256 14.7714V14.7408C30.8256 14.3169 30.9949 13.9326 31.2697 13.6537C31.5399 13.3738 31.9167 13.2003 32.3338 13.2003H32.3708H32.3686L32.4067 13.1992C32.7084 13.1992 32.9831 13.3114 33.1939 13.4962L33.1928 13.495C33.297 13.5925 33.38 13.7107 33.4367 13.8422C33.4935 13.9737 33.5227 14.1156 33.5225 14.2591L33.5214 14.3135V14.3112V14.3384C33.5214 14.7567 33.3498 15.1353 33.0728 15.404C32.9329 15.5449 32.7669 15.6565 32.5843 15.7326C32.4018 15.8086 32.2061 15.8476 32.0086 15.8472H31.9806H31.9817L31.9795 15.8495ZM11.8181 15.8495L11.7621 15.8506C11.4683 15.8506 11.198 15.7418 10.9917 15.5615L10.9928 15.5627C10.8942 15.4674 10.8157 15.3528 10.7621 15.226C10.7086 15.0991 10.681 14.9626 10.6811 14.8247L10.6822 14.7714V14.7408C10.6822 14.3169 10.8515 13.9326 11.1262 13.6537C11.3965 13.3738 11.7722 13.2003 12.1893 13.2003H12.2286H12.2263L12.2644 13.1992C12.5661 13.1992 12.8408 13.3114 13.0517 13.4962L13.0505 13.495C13.1544 13.5924 13.2372 13.7105 13.2937 13.8418C13.3503 13.9731 13.3793 14.1147 13.3791 14.2579L13.378 14.3135V14.3112V14.3509C13.378 14.7692 13.2064 15.1455 12.9294 15.4142C12.642 15.6938 12.2585 15.8498 11.8596 15.8495H11.8193H11.8215H11.8181ZM25.1704 12.9475L25.4721 11.0307C25.4745 11.0024 25.4824 10.975 25.4953 10.9498C25.5082 10.9247 25.5259 10.9024 25.5474 10.8842C25.5688 10.8659 25.5936 10.8522 25.6203 10.8437C25.6471 10.8352 25.6752 10.8321 25.7031 10.8345H25.702H26.0216L26.09 10.8334C26.284 10.8334 26.4757 10.847 26.663 10.8731L26.6417 10.8708C26.8155 10.9026 26.9669 10.9819 27.0858 11.0953C27.1535 11.16 27.2074 11.238 27.2443 11.3246C27.2811 11.4111 27.3001 11.5044 27.3 11.5986L27.2988 11.6417V11.6394C27.3224 11.8288 27.2993 12.0211 27.2316 12.1993C27.1639 12.3775 27.0537 12.536 26.9108 12.6607L26.9097 12.6619C26.5524 12.868 26.1427 12.9627 25.7323 12.9339H25.739L25.1727 12.9521L25.1704 12.9475ZM5.0091 12.9475L5.31075 11.0307C5.31301 11.0024 5.32079 10.9748 5.33366 10.9496C5.34653 10.9244 5.36422 10.902 5.38571 10.8838C5.4072 10.8656 5.43206 10.8518 5.45885 10.8434C5.48563 10.8349 5.51382 10.8319 5.54176 10.8345H5.54064H5.87705C6.23608 10.808 6.59548 10.8809 6.91657 11.0454L6.90536 11.0397C7.1173 11.1769 7.18907 11.4682 7.11842 11.908C7.11301 12.0722 7.06862 12.2327 6.98899 12.376C6.90936 12.5192 6.79684 12.641 6.6609 12.731L6.65753 12.7333C6.12603 12.9311 5.55692 13.004 4.9934 12.9464L5.0091 12.9475Z" fill="white"/>
</svg>
