<svg width="42" height="42" viewBox="0 0 42 42" fill="none" xmlns="http://www.w3.org/2000/svg">
<g id="cib:apple-pay" clip-path="url(#clip0_201_641)">
<path id="Vector" d="M8.32414 14.8368C7.84979 15.402 7.09412 15.8499 6.33971 15.7843C6.24005 15.0223 6.61599 14.206 7.04997 13.7002C7.52305 13.1236 8.35063 12.7098 9.02178 12.6758C9.10126 13.4718 8.79091 14.254 8.3254 14.8368H8.32414ZM9.01421 15.9344C7.91792 15.8675 6.9768 16.5639 6.45704 16.5639C5.92592 16.5639 5.12988 15.9672 4.26319 15.9874C3.13914 16.0012 2.08827 16.6434 1.51678 17.6766C0.327135 19.7317 1.2077 22.7745 2.35067 24.4499C2.90954 25.2775 3.57817 26.1845 4.45999 26.1593C5.29388 26.1252 5.62946 25.608 6.63492 25.608C7.65299 25.608 7.94189 26.1593 8.83002 26.1391C9.74213 26.1252 10.3199 25.3115 10.8788 24.4839C11.5159 23.5441 11.7783 22.6232 11.7922 22.5777C11.7783 22.5575 10.0247 21.8814 10.0121 19.8439C9.99822 18.1345 11.391 17.3208 11.4503 17.2742C10.6681 16.0921 9.43305 15.9672 9.01295 15.9356L9.01421 15.9344ZM15.3422 13.6207V26.0533H17.2534V21.8031H19.8964C22.3072 21.8031 24.0028 20.1278 24.0028 17.7094C24.0028 15.2859 22.3413 13.6219 19.962 13.6219L15.3422 13.6207ZM17.2534 15.2506H19.4548C21.11 15.2506 22.0574 16.1438 22.0574 17.7144C22.0574 19.2851 21.11 20.1858 19.4422 20.1858H17.2534V15.2506ZM27.4834 26.1454C28.6857 26.1454 29.7958 25.5348 30.303 24.5609H30.3433V26.0533H32.1095V19.8629C32.1095 18.0765 30.6915 16.9146 28.5027 16.9146C26.4792 16.9146 24.9805 18.0904 24.9287 19.7001H26.6432C26.7883 18.9318 27.4847 18.4323 28.451 18.4323C29.6205 18.4323 30.2714 18.9836 30.2714 19.9966V20.6791L27.8934 20.8242C25.6718 20.9617 24.4758 21.875 24.4758 23.4722C24.4758 25.0819 25.7122 26.1467 27.4847 26.1467L27.4834 26.1454ZM28.0032 24.6732C26.9838 24.6732 26.3341 24.1799 26.3341 23.4255C26.3341 22.6433 26.9586 22.1829 28.147 22.1097L30.2702 21.9785V22.6812C30.2702 23.8456 29.2912 24.6732 27.9956 24.6732H28.0032ZM34.4686 29.4368C36.3269 29.4368 37.2024 28.7139 37.9644 26.539L41.3151 17.0382H39.3773L37.1305 24.3767H37.0901L34.8433 17.0382H32.8463L36.0796 26.0861L35.9081 26.6374C35.6116 27.5647 35.1398 27.9242 34.2983 27.9242C34.1469 27.9242 33.858 27.9053 33.7394 27.8927V29.3851C33.8505 29.4166 34.3248 29.4305 34.4623 29.4305L34.4686 29.4368Z" fill="white"/>
</g>
<defs>
<clipPath id="clip0_201_641">
<rect width="40.3698" height="40.3698" fill="white" transform="translate(0.945312 0.900879)"/>
</clipPath>
</defs>
</svg>
