<svg width="41" height="16" viewBox="0 0 41 16" fill="none" xmlns="http://www.w3.org/2000/svg">
<path id="Vector" d="M40.6175 3.72131L35.348 15.4954H33.718L35.676 11.3752L32.2067 3.72005H33.9211L36.4316 9.58755H36.4644L38.8955 3.72005L40.6175 3.72131ZM18.7244 7.36216V12.1321H17.068V0.358005H21.4507C22.491 0.329487 23.5041 0.69285 24.2892 1.37608C25.065 2.01317 25.4914 2.91392 25.4788 3.86639C25.4841 4.34572 25.3797 4.81992 25.1735 5.25267C24.9673 5.68541 24.6648 6.06522 24.2892 6.36301C23.5272 7.0329 22.581 7.36216 21.4507 7.36216H18.7244ZM18.7181 1.81006V5.91642H21.491C22.0947 5.93807 22.6826 5.72096 23.1273 5.31214C23.5549 4.93115 23.7908 4.41139 23.7908 3.8727C23.7908 3.32771 23.5537 2.80795 23.1273 2.43327C22.9095 2.22599 22.6527 2.06404 22.3718 1.95684C22.0909 1.84964 21.7915 1.79932 21.491 1.8088L18.7181 1.81006ZM28.7967 3.72131C29.8476 3.72131 30.6827 4.01652 31.2933 4.60188C31.9039 5.18724 32.2067 5.98833 32.2067 7.00641V11.8748H30.8404V10.7772H30.7811C30.1895 11.6779 29.4073 12.1308 28.4283 12.1308C27.5869 12.1308 26.8905 11.8748 26.3253 11.355C26.0526 11.1136 25.8356 10.8159 25.6892 10.4824C25.5428 10.1489 25.4706 9.78766 25.4775 9.42355C25.4775 8.60858 25.7727 7.95888 26.3707 7.47192C26.9624 6.99253 27.7572 6.74905 28.7488 6.74905C29.5965 6.74905 30.2929 6.91305 30.8379 7.23475V6.89287C30.8397 6.64469 30.7883 6.39901 30.6874 6.17229C30.5864 5.94557 30.4382 5.74305 30.2525 5.57832C29.8786 5.22833 29.3845 5.03547 28.8724 5.03964C28.0776 5.03964 27.4468 5.38783 26.9801 6.08421L25.7248 5.26924C26.4149 4.23729 27.4393 3.71879 28.7929 3.71879L28.7967 3.72131ZM26.951 9.45761C26.9482 9.64456 26.9896 9.82953 27.0718 9.99746C27.154 10.1654 27.2747 10.3115 27.4241 10.424C27.7395 10.6801 28.1344 10.8188 28.5343 10.8113C29.1323 10.8113 29.7101 10.5615 30.1377 10.1212C30.5906 9.70109 30.848 9.10942 30.848 8.49126C30.4014 8.12288 29.7832 7.9387 28.9885 7.9387C28.4031 7.9387 27.9237 8.08378 27.5364 8.37267C27.1491 8.66788 26.951 9.02363 26.951 9.45635V9.45761ZM7.11433 0.358005C8.81289 0.337519 10.4554 0.965031 11.7077 2.11283L9.74972 4.03166C9.03448 3.36808 8.08981 3.00766 7.11433 3.0262C6.26307 3.03036 5.43426 3.29964 4.74309 3.79659C4.05193 4.29354 3.53276 4.99347 3.25776 5.7991C2.9688 6.63349 2.9688 7.5408 3.25776 8.37519C3.53276 9.18082 4.05193 9.88075 4.74309 10.3777C5.43426 10.8747 6.26307 11.1439 7.11433 11.1481C8.04032 11.1481 8.83636 10.9185 9.45326 10.511C9.80817 10.2799 10.1123 9.97894 10.3472 9.6265C10.5821 9.27407 10.7428 8.87751 10.8195 8.46098H7.11307V5.87227H13.5849C13.6643 6.32517 13.7034 6.77933 13.7034 7.23853C13.7034 9.28856 12.9541 11.0232 11.6597 12.1927C10.5231 13.2183 8.9663 13.815 7.11307 13.815C5.84812 13.8215 4.6059 13.4789 3.52307 12.825C2.44024 12.171 1.55876 11.2311 0.975601 10.1086C0.496146 9.17313 0.246094 8.13704 0.246094 7.08588C0.246094 6.03472 0.496146 4.99864 0.975601 4.0632C1.55806 2.94172 2.43833 2.00246 3.51972 1.3486C4.60112 0.69473 5.8418 0.351548 7.1055 0.356744L7.11433 0.358005Z" fill="white"/>
</svg>
