<svg width="44" height="29" viewBox="0 0 44 29" fill="none" xmlns="http://www.w3.org/2000/svg">
<path id="Vector" d="M2.08085 0.702193C0.95357 0.702193 0.0390625 1.61622 0.0390625 2.74398V26.2172C0.0390625 27.3448 0.953702 28.259 2.08085 28.259H41.8775C43.0048 28.259 43.9193 27.3449 43.9193 26.2172V2.74394C43.9193 1.61635 43.0047 0.702148 41.8775 0.702148H2.08081L2.08085 0.702193ZM14.4276 4.01927C16.9324 4.01927 19.2327 4.89069 21.0385 6.34629C19.5192 7.70565 18.3861 9.49162 17.827 11.5159H18.7032C19.2193 9.84595 20.1567 8.35912 21.3923 7.18001C22.6278 8.35912 23.5652 9.84595 24.0813 11.5159H24.9713C24.4044 9.50228 23.2697 7.72698 21.7516 6.37647C23.5607 4.90241 25.8702 4.01923 28.3857 4.01923C34.1906 4.01923 38.8964 8.72547 38.8964 14.5313C38.8964 20.3371 34.1906 25.0434 28.3857 25.0434C25.8283 25.0434 23.4834 24.1306 21.661 22.6121C23.2912 21.1939 24.493 19.2927 25.0426 17.1298H24.1855C23.6975 18.9452 22.7153 20.5597 21.3922 21.8223C20.0692 20.5597 19.0884 18.9452 18.6003 17.1298H17.7844C18.3372 19.2614 19.5233 21.136 21.1289 22.5408C19.3099 24.0405 16.9742 24.9419 14.4276 24.9419C8.62269 24.9419 3.91698 20.2583 3.91698 14.4806C3.91698 8.70287 8.62269 4.01927 14.4276 4.01927ZM27.5972 11.409C26.3343 11.409 25.1056 12.5131 25.1056 14.5862C25.1056 15.9608 25.7693 16.8679 27.0748 16.8679C27.4439 16.8681 28.0319 16.7171 28.0319 16.7171L28.2266 15.5159C28.2266 15.5159 27.69 15.7874 27.3216 15.7874C26.5456 15.7874 26.2342 15.1906 26.2342 14.5492C26.2342 13.248 26.9019 12.532 27.6452 12.532C28.2026 12.532 28.6503 12.8474 28.6503 12.8474L28.8286 11.6791C28.8286 11.6791 28.1658 11.409 27.5972 11.409H27.5972ZM38.2148 11.5105L37.1165 11.5132L36.8806 12.9585C36.8806 12.9585 36.4677 12.3976 35.822 12.3976C34.818 12.3976 33.9818 13.5903 33.9818 14.9619C33.9818 15.8473 34.4268 16.7157 35.3393 16.7157C35.9957 16.7157 36.3595 16.2646 36.3595 16.2646L36.3115 16.6499H37.3784L38.2148 11.5105ZM6.75546 11.5255L5.88062 16.6773H6.9351L7.60155 12.7926L7.70028 16.6773H8.45445L9.86138 12.7926L9.23745 16.6773H10.3578L11.2217 11.5255H9.4884L8.40921 14.6862L8.353 11.5256H6.7555L6.75546 11.5255ZM17.7722 11.8601C17.7483 11.884 17.1345 15.4235 17.1345 15.8546C17.1345 16.4928 17.4923 16.7779 17.9957 16.7733C18.3564 16.7703 18.6357 16.6796 18.7649 16.6417C18.7785 16.638 18.8047 16.6307 18.8047 16.6307L18.9405 15.7092C18.8667 15.7092 18.7579 15.7408 18.6621 15.7408C18.2863 15.7408 18.2446 15.5408 18.2685 15.3925L18.5716 13.5125H19.1434L19.2819 12.4936H18.743L18.8527 11.8601H17.7722ZM30.518 12.3785C29.782 12.3785 29.218 12.6212 29.218 12.6212L29.0617 13.5673C29.0617 13.5673 29.5275 13.374 30.2314 13.374C30.6311 13.374 30.9238 13.4197 30.9238 13.7524C30.9238 13.9545 30.8882 14.0294 30.8882 14.0294C30.8882 14.0294 30.5722 14.002 30.4261 14.002C29.498 14.002 28.5228 14.4088 28.5228 15.6324C28.5228 16.5966 29.163 16.8172 29.5595 16.8172C30.3168 16.8172 30.6433 16.3141 30.6606 16.3126L30.6249 16.7322H31.5698L31.9921 13.7045C31.9922 12.4197 30.898 12.3784 30.518 12.3784V12.3785ZM12.7945 12.3839C12.0558 12.3839 11.489 12.6266 11.489 12.6266L11.3327 13.5728C11.3327 13.5728 11.8001 13.3795 12.5065 13.3795C12.9077 13.3795 13.2018 13.4253 13.2018 13.7579C13.2018 13.9599 13.1661 14.0349 13.1661 14.0349C13.1661 14.0349 12.8491 14.0075 12.7026 14.0075C11.7709 14.0075 10.7925 14.4136 10.7925 15.6366C10.7925 16.6002 11.4339 16.8213 11.8319 16.8213C12.5919 16.8213 12.9197 16.3182 12.9371 16.3167L12.9015 16.7363H13.8504L14.2741 13.71C14.2741 12.426 13.1759 12.3839 12.7945 12.3839V12.3839ZM16.1458 12.3839C15.3526 12.3839 14.547 12.7041 14.547 13.7977C14.547 15.0368 15.8894 14.9116 15.8894 15.4336C15.8894 15.782 15.5148 15.8107 15.2257 15.8107C14.7255 15.8107 14.2757 15.6379 14.2741 15.6462L14.1301 16.5923C14.156 16.6003 14.4345 16.7253 15.3341 16.7253C15.5756 16.7253 16.9562 16.7867 16.9562 15.3486C16.9562 14.0041 15.6782 14.2706 15.6782 13.7305C15.6782 13.4616 15.8857 13.3767 16.2665 13.3767C16.4177 13.3767 17.0002 13.4247 17.0002 13.4247L17.1345 12.4689C17.1345 12.4691 16.7587 12.3839 16.1459 12.3839H16.1458ZM21.1043 12.3839C20.002 12.3842 19.1859 13.5695 19.1859 14.9084C19.1859 16.4538 20.2084 16.8213 21.0796 16.8213C21.8838 16.8213 22.2383 16.6417 22.2383 16.6417L22.4303 15.5872C22.4303 15.5872 21.8186 15.856 21.2661 15.856C20.089 15.856 20.2953 14.9797 20.2953 14.9797H22.5235C22.5235 14.9797 22.6676 14.2716 22.6676 13.9828C22.6676 13.2623 22.308 12.3839 21.1043 12.3839H21.1043ZM25.0961 12.4292C24.5995 12.4292 24.2308 13.097 24.2308 13.097L24.3295 12.484H23.2983L22.6059 16.7157H23.7453C24.0681 14.9087 24.127 13.4414 24.8972 13.71C25.032 13.0105 25.1628 12.7403 25.3099 12.4443C25.3099 12.4443 25.2408 12.4292 25.096 12.4292H25.0961ZM34.3287 12.4292C33.8321 12.4292 33.4635 13.097 33.4635 13.097L33.5622 12.484H32.531L31.8385 16.7157H32.9766C33.2995 14.9087 33.3599 13.4414 34.1299 13.71C34.2649 13.0105 34.3956 12.7403 34.5426 12.4443C34.5426 12.4443 34.4735 12.4292 34.3287 12.4292H34.3287ZM21.0988 13.3383C21.7248 13.3383 21.6103 14.045 21.6103 14.1021H20.3775C20.3775 14.0292 20.4942 13.3383 21.0988 13.3383H21.0988ZM35.9948 13.4206C36.3932 13.4205 36.5982 13.6896 36.5982 14.3229C36.5982 14.8974 36.3084 15.6653 35.7082 15.6653C35.3098 15.6653 35.1227 15.3364 35.1227 14.8207C35.1227 13.9774 35.5084 13.4206 35.9948 13.4206H35.9948ZM30.5194 14.8604C30.6819 14.8606 30.7155 14.8764 30.7429 14.8838C30.7389 14.8831 30.7382 14.8838 30.7539 14.8865C30.7744 15.0749 30.64 15.9588 29.99 15.9588C29.6549 15.9588 29.5691 15.6923 29.5691 15.5351C29.5691 15.2284 29.7287 14.8604 30.5194 14.8604ZM12.7959 14.8645C12.9805 14.8648 13.0006 14.8854 13.0317 14.8906C13.0524 15.079 12.9174 15.9615 12.2652 15.9615C11.9288 15.9615 11.8415 15.6963 11.8415 15.5392C11.8415 15.2327 12.0021 14.8645 12.7959 14.8645Z" fill="white"/>
</svg>
