<svg width="37" height="26" viewBox="0 0 37 26" fill="none" xmlns="http://www.w3.org/2000/svg">
<path id="Vector" d="M4.64893 0.470215C2.57367 0.470215 0.864258 2.17962 0.864258 4.25488V21.9167C0.864258 23.9919 2.57367 25.7013 4.64893 25.7013H32.4032C34.4784 25.7013 36.1878 23.9919 36.1878 21.9167V4.25488C36.1878 2.17962 34.4784 0.470215 32.4032 0.470215H4.64893ZM4.64893 2.99333H32.4032C33.1159 2.99333 33.6647 3.5421 33.6647 4.25488V21.9167C33.6647 22.6294 33.1159 23.1782 32.4032 23.1782H4.64893C3.93615 23.1782 3.38737 22.6294 3.38737 21.9167V4.25488C3.38737 3.5421 3.93615 2.99333 4.64893 2.99333ZM22.8229 8.51263C20.3931 8.51263 19.1177 9.71111 19.1177 11.2325C19.1177 13.9865 22.3473 13.6043 22.3473 15.0172C22.3473 15.2607 22.1454 15.8082 20.8082 15.8082C19.4709 15.8082 18.6005 15.3351 18.6005 15.3351L18.2094 17.1518C18.2094 17.1518 19.0357 17.6627 20.6947 17.6627C22.3473 17.6627 24.6736 16.3911 24.6736 14.5467C24.6736 12.3314 21.4402 12.185 21.4402 11.1972C21.4402 10.6926 21.8692 10.2889 23.0172 10.2889C23.7665 10.2889 24.5941 10.8818 24.5941 10.8818L24.9903 8.95165C24.9903 8.95165 23.8927 8.51642 22.8204 8.51642L22.8229 8.51263ZM12.4554 8.67033L10.3259 14.8999C10.3259 14.8999 10.22 14.3599 10.1682 14.0319C8.96345 11.3322 7.01434 10.3255 7.01434 10.3255L8.86883 17.3826H11.3919L14.9369 8.67033H12.458H12.4554ZM15.8452 8.67033L14.4651 17.3826H16.7939L18.1728 8.67033H15.8452ZM28.3826 8.67033L24.5979 17.3826H26.8838L27.3569 16.1614H30.2749L30.5108 17.3826H32.6L30.8262 8.67033H28.3813H28.3826ZM4.45086 8.70817C4.45086 8.70817 8.98868 10.1022 10.0496 13.5197L9.2637 9.57739C9.2637 9.57739 8.91677 8.70691 8.00214 8.70691H4.45212L4.45086 8.70817ZM29.2493 11.1934L29.9179 14.4659H28.0256L29.2493 11.1934Z" fill="white"/>
</svg>
