<svg width="62" height="62" viewBox="0 0 62 62" fill="none" xmlns="http://www.w3.org/2000/svg">
<g id="Search">
<circle id="Ellipse 1" cx="31" cy="31" r="30" fill="white" stroke="black" stroke-width="2"/>
<path id="Vector" d="M37.5493 35.1006C39.2438 32.7881 40.0027 29.9209 39.6743 27.0728C39.3458 24.2247 37.9543 21.6056 35.778 19.7395C33.6017 17.8735 30.8011 16.8981 27.9366 17.0084C25.0721 17.1188 22.3549 18.3069 20.3287 20.3349C18.3024 22.3629 17.1165 25.0813 17.0081 27.9463C16.8998 30.8113 17.8771 33.6115 19.7444 35.7868C21.6118 37.962 24.2315 39.3519 27.0795 39.6784C29.9274 40.0048 32.7936 39.2437 35.1046 37.5474H35.1029C35.1554 37.6174 35.2114 37.6839 35.2744 37.7486L42.0116 44.4868C42.3398 44.8152 42.7849 44.9998 43.2491 45C43.7133 45.0002 44.1586 44.8159 44.4869 44.4877C44.8153 44.1595 44.9998 43.7144 45 43.2501C45.0002 42.7858 44.8159 42.3405 44.4878 42.0121L37.7505 35.2739C37.688 35.2106 37.6207 35.152 37.5493 35.0989V35.1006ZM38.0008 28.3729C38.0008 29.637 37.7518 30.8888 37.2682 32.0566C36.7845 33.2245 36.0755 34.2857 35.1818 35.1795C34.2881 36.0734 33.227 36.7824 32.0593 37.2662C30.8916 37.7499 29.6401 37.9989 28.3761 37.9989C27.1122 37.9989 25.8607 37.7499 24.693 37.2662C23.5252 36.7824 22.4642 36.0734 21.5705 35.1795C20.6768 34.2857 19.9678 33.2245 19.4841 32.0566C19.0005 30.8888 18.7515 29.637 18.7515 28.3729C18.7515 25.82 19.7655 23.3716 21.5705 21.5663C23.3755 19.7611 25.8235 18.7469 28.3761 18.7469C30.9288 18.7469 33.3768 19.7611 35.1818 21.5663C36.9868 23.3716 38.0008 25.82 38.0008 28.3729Z" fill="black"/>
</g>
</svg>
